# xmcd
#
# Track frame offsets:
#	150
#	17955
#	34905
#	50970
#	69432
#	85992
#	103507
#	119597
#	136047
#	151055
#	166787
#	186080
#	202730
#	219830
#	237802
#	254550
#
# Disc length: 3603 seconds
#
# Revision: 1
# Processed by: cddbd v1.5.2PL0 Copyright (c) Steve Scherf et al.
# Submitted via: audiograbber 1.83.01
#
DISCID=d50e1110
DTITLE=Magníficos - Fonte dos Desejos
DYEAR=1998
DGENRE=Forró
TTITLE0=O Homem Ideal
TTITLE1=Doce Pecado
TTITLE2=De Bandeja
TTITLE3=Tentando Me Evitar
TTITLE4=Puro Perfume
TTITLE5=Meu Neguinho
TTITLE6=Faz Um Tempo
TTITLE7=Você É Linda
TTITLE8=Foi Assim
TTITLE9=Ficar Na Solidão
TTITLE10=Quente e Arrochado
TTITLE11=Vem Bailar
TTITLE12=Canibal
TTITLE13=Esse Teu Sorriso
TTITLE14=Sonho de Amor
TTITLE15=Me Ama
EXTD=Dados Por - Dayvison de Azevedo - Recife - PE\nFacebook - https://www.face
EXTD=book.com/profile.php?id=100006142608616
EXTT0=
EXTT1=
EXTT2=
EXTT3=
EXTT4=
EXTT5=
EXTT6=
EXTT7=
EXTT8=
EXTT9=
EXTT10=
EXTT11=
EXTT12=
EXTT13=
EXTT14=
EXTT15=
PLAYORDER=
